<svg xmlns="http://www.w3.org/2000/svg" viewBox="0 0 109.4 110.3"><title>instagramIcon</title><path d="M1,56.1V24.9C1,11.3,10.9,1.1,24.5,1.1,45.3,1,66.2,1,87,1.1c13.4,0,23.3,10.2,23.4,23.6V87.5c0,13.5-10.1,23.6-23.6,23.7H24.5C11,111.1,1,100.9,1,87.4Zm9.4.1V87.7c.1,8,5.9,14,14,14H87.1a13.6,13.6,0,0,0,13.9-14v-63c0-8.2-5.8-14.2-14.1-14.2H24.4c-8.2,0-13.9,6-14,14.2Z" transform="translate(-1 -1)"/><path d="M84.2,56.2A28.5,28.5,0,1,1,55.7,27.5,28.5,28.5,0,0,1,84.2,56.2ZM55.7,37a19.2,19.2,0,0,0-.1,38.3A19.4,19.4,0,0,0,74.9,56.2,19.1,19.1,0,0,0,55.7,37Z" transform="translate(-1 -1)"/><path d="M86.4,19.4A6.6,6.6,0,0,1,93,26.1a6.5,6.5,0,0,1-6.8,6.6A6.6,6.6,0,0,1,79.7,26,6.7,6.7,0,0,1,86.4,19.4Z" transform="translate(-1 -1)"/></svg>