<svg width="30" height="30" viewBox="0 0 30 30" fill="none" xmlns="http://www.w3.org/2000/svg">
<path d="M0 29.9742L2.45478 22.7132C2.52283 22.5477 2.55348 22.3693 2.54454 22.1906C2.53561 22.0119 2.48731 21.8374 2.4031 21.6796C-0.284238 16.5892 -0.206718 11.4987 2.9199 6.66668C6.04651 1.83464 10.6718 -0.335906 16.4083 0.0516907C23.7984 0.542647 29.7158 6.58916 29.9742 13.7985C30.2584 21.447 25.0129 27.9328 17.5452 29.0439C14.4924 29.518 11.3678 29.0303 8.60465 27.6486C8.28481 27.5154 7.92869 27.4971 7.5969 27.5969C5.09044 28.3463 2.60982 29.1473 0 29.9742ZM3.69509 26.3824L7.88114 25.0388C8.0478 24.9658 8.23044 24.937 8.41147 24.9551C8.5925 24.9732 8.76582 25.0376 8.91473 25.1421C10.8305 26.2813 13.0179 26.8831 15.2468 26.8843C17.4757 26.8855 19.6637 26.2861 21.5808 25.1491C23.4979 24.0121 25.0731 22.3795 26.1409 20.423C27.2087 18.4665 27.7295 16.2584 27.6486 14.031C27.3385 7.72611 22.2997 2.58399 15.9948 2.32559C11.0078 2.09303 7.05426 4.16022 4.5478 8.47546C2.04134 12.7907 2.29974 17.1576 4.9354 21.3954C5.0858 21.672 5.12286 21.9963 5.03876 22.2997C4.62532 23.6176 4.16021 24.9354 3.69509 26.3824Z" fill="black" fill-opacity="0.8"/>
<path d="M10.6977 7.95864C11.3954 7.75193 11.7055 8.21704 11.9381 8.81136C12.1712 9.49986 12.4473 10.173 12.7649 10.8269C13.1267 11.4729 12.9716 11.9638 12.5582 12.4806C11.6538 13.5659 11.6797 13.5659 12.5065 14.7287C13.5974 16.2181 15.0832 17.3727 16.7959 18.062C16.9488 18.1419 17.1258 18.1623 17.2928 18.1193C17.4598 18.0764 17.605 17.9731 17.7003 17.8294C18.0104 17.4677 18.3463 17.1059 18.6306 16.7183C18.9148 16.3307 19.199 16.2015 19.6125 16.4083C20.5427 16.8475 21.4988 17.261 22.4032 17.7519C22.504 17.8333 22.5862 17.9354 22.6442 18.0513C22.7021 18.1672 22.7345 18.2942 22.7391 18.4238C22.7419 19.1127 22.4988 19.7801 22.0536 20.3058C21.6083 20.8316 20.9902 21.1813 20.3102 21.292C19.611 21.434 18.8904 21.434 18.1913 21.292C13.8502 20.3101 10.8786 17.5452 8.75976 13.7726C7.67449 11.8088 7.88121 9.92247 9.19904 8.52712C9.36728 8.29776 9.59833 8.12203 9.86429 8.02115C10.1302 7.92027 10.4197 7.89856 10.6977 7.95864Z" fill="black" fill-opacity="0.8"/>
</svg>
