<svg xmlns="http://www.w3.org/2000/svg" viewBox="0 0 220.1 7.5"><defs><style>.a{fill:#f09b1a;}</style></defs><title>banner-bottomer</title><path class="a" d="M291.8,1.7V8.8H71.7V1.7a983.2,983.2,0,0,0,110,6.1A985,985,0,0,0,291.8,1.7Z" transform="translate(-71.7 -1.3)"/><path class="a" d="M291.8,1.3V8.8H71.7V1.3a935.8,935.8,0,0,0,110,6.4A937.6,937.6,0,0,0,291.8,1.3Z" transform="translate(-71.7 -1.3)"/><path class="a" d="M291.8,1.3V8.8H71.7V1.3a935.8,935.8,0,0,0,110,6.4A937.6,937.6,0,0,0,291.8,1.3Z" transform="translate(-71.7 -1.3)"/></svg>