<svg width="30" height="30" viewBox="0 0 30 30" fill="none" xmlns="http://www.w3.org/2000/svg">
<path d="M15 0C6.72 0 0 6.72 0 15C0 23.28 6.72 30 15 30H22.5V27H15C8.49 27 3 21.51 3 15C3 8.49 8.49 3 15 3C21.51 3 27 8.49 27 15V17.145C27 18.33 25.935 19.5 24.75 19.5C23.565 19.5 22.5 18.33 22.5 17.145V15C22.5 10.86 19.14 7.5 15 7.5C10.86 7.5 7.5 10.86 7.5 15C7.5 19.14 10.86 22.5 15 22.5C17.07 22.5 18.96 21.66 20.31 20.295C21.285 21.63 22.965 22.5 24.75 22.5C27.705 22.5 30 20.1 30 17.145V15C30 6.72 23.28 0 15 0ZM15 19.5C12.51 19.5 10.5 17.49 10.5 15C10.5 12.51 12.51 10.5 15 10.5C17.49 10.5 19.5 12.51 19.5 15C19.5 17.49 17.49 19.5 15 19.5Z" fill="black" fill-opacity="0.8"/>
</svg>
