<svg xmlns="http://www.w3.org/2000/svg" viewBox="0 0 117 94.7"><title>twitterIcon</title><path d="M115.1,3.5a24.9,24.9,0,0,1-9.5,12l.3.6,12.3-3.3A55.1,55.1,0,0,1,108,23.6a4.4,4.4,0,0,0-1.4,2.9c0,40-31.1,70.3-71.2,69.2A67.7,67.7,0,0,1,1.1,85.4a55.6,55.6,0,0,0,18.2-1.8,50.3,50.3,0,0,0,16.4-8.1c-14.1-4.1-19.2-8-22-16.9h9.7C12.1,54.4,5.8,46.9,4.9,34.8L15,37.6C4.7,26.7,2.2,14.9,8.6,5.7Q28.1,28.2,58.2,30.5a14.7,14.7,0,0,0,0-2.1C56.9,18,61.6,8.8,70.5,4A24.2,24.2,0,0,1,98,7a4.2,4.2,0,0,0,4.8,1Z" transform="translate(-1.1 -1)"/></svg>