<svg xmlns="http://www.w3.org/2000/svg" viewBox="0 0 116.1 116"><title>whatsappIcon</title><path d="M1.2,116.8l9.5-28.1a4.7,4.7,0,0,0-.2-4C.1,65,.4,45.3,12.5,26.6S42.5-.5,64.7,1c28.6,1.9,51.5,25.3,52.5,53.2,1.1,29.6-19.2,54.7-48.1,59a57.6,57.6,0,0,1-34.6-5.4,5.8,5.8,0,0,0-3.9-.2C20.9,110.5,11.3,113.6,1.2,116.8Zm14.3-13.9,16.2-5.2a4.1,4.1,0,0,1,4,.4,48,48,0,0,0,72.5-43C107,30.7,87.5,10.8,63.1,9.8c-19.3-.9-34.6,7.1-44.3,23.8s-8.7,33.6,1.5,50a4.7,4.7,0,0,1,.4,3.5C19.1,92.2,17.3,97.3,15.5,102.9Z" transform="translate(-1.2 -0.8)"/><path d="M42.6,31.6c2.7-.8,3.9,1,4.8,3.3a67.1,67.1,0,0,0,3.2,7.8c1.4,2.5.8,4.4-.8,6.4-3.5,4.2-3.4,4.2-.2,8.7A38.3,38.3,0,0,0,66.2,70.7a2.7,2.7,0,0,0,3.5-.9c1.2-1.4,2.5-2.8,3.6-4.3s2.2-2,3.8-1.2c3.6,1.7,7.3,3.3,10.8,5.2a3.5,3.5,0,0,1,1.3,2.6,11.2,11.2,0,0,1-9.4,11.1,20.6,20.6,0,0,1-8.2,0C54.8,79.4,43.3,68.7,35.1,54.1c-4.2-7.6-3.4-14.9,1.7-20.3A5.7,5.7,0,0,1,42.6,31.6Z" transform="translate(-1.2 -0.8)"/></svg>